<?xml version="1.0" standalone="no"?>
<!DOCTYPE svg PUBLIC "-//W3C//DTD SVG 20010904//EN"
 "http://www.w3.org/TR/2001/REC-SVG-20010904/DTD/svg10.dtd">
<svg version="1.0" xmlns="http://www.w3.org/2000/svg"
 width="1024.000000pt" height="1024.000000pt" viewBox="0 0 1024.000000 1024.000000"
 preserveAspectRatio="xMidYMid meet">

<g transform="translate(0.000000,1024.000000) scale(0.100000,-0.100000)"
fill="#000000" stroke="none">
<path d="M6519 8895 c-58 -30 -109 -89 -149 -171 -17 -35 -33 -64 -36 -64 -3
0 -22 13 -42 29 -99 79 -312 65 -391 -24 -16 -19 -46 -64 -67 -102 -21 -37
-50 -86 -64 -108 -15 -22 -82 -131 -149 -243 -67 -112 -152 -252 -190 -310
-94 -148 -101 -173 -80 -272 14 -68 44 -100 129 -140 38 -19 70 -38 70 -43 0
-5 -13 -27 -28 -50 -16 -23 -68 -114 -117 -202 -48 -88 -110 -199 -138 -247
-33 -59 -51 -104 -55 -135 -4 -37 -14 -58 -43 -92 -44 -49 -82 -113 -99 -166
-10 -30 -9 -45 4 -85 9 -27 16 -51 16 -53 0 -9 -238 -196 -390 -306 -223 -161
-212 -147 -185 -234 49 -162 58 -658 17 -891 -25 -136 -16 -179 39 -199 26 -9
92 27 237 130 232 165 408 259 675 358 85 32 134 56 147 72 21 27 25 54 40
298 11 166 25 313 36 367 5 24 9 27 34 21 87 -17 176 51 235 182 29 64 38 75
59 75 32 0 95 80 174 222 58 102 97 168 217 363 103 167 170 276 217 355 63
106 104 173 161 265 28 44 65 107 84 140 19 33 52 76 73 95 21 19 56 69 78
110 22 42 54 98 71 125 17 27 34 65 37 84 4 20 34 81 67 136 73 123 87 160 87
239 0 69 -21 119 -74 175 -40 43 -293 210 -414 273 -88 46 -96 48 -170 48 -61
-1 -86 -6 -123 -25z m171 -130 c60 -21 270 -150 322 -198 24 -21 36 -34 27
-28 -20 14 -34 -2 -118 -124 -34 -49 -65 -90 -69 -90 -4 0 -69 38 -146 85 -76
47 -166 100 -200 118 -33 18 -62 37 -64 42 -4 12 51 111 86 152 26 31 73 57
103 58 9 0 36 -7 59 -15z m-550 -195 c41 -22 44 -47 12 -98 -37 -59 -112 -202
-112 -214 0 -5 -17 -35 -39 -66 -40 -60 -102 -162 -165 -272 -57 -101 -176
-294 -189 -307 -9 -9 -28 -3 -84 30 -40 22 -73 47 -73 54 0 7 17 39 38 72 20
33 67 109 103 168 36 59 105 172 153 251 48 78 108 182 133 230 25 48 53 96
62 106 41 49 116 70 161 46z m970 -70 c24 -18 24 -19 4 -17 -12 0 -27 9 -33
19 -14 23 -2 23 29 -2z m-760 -35 c7 -8 37 -29 68 -47 74 -42 382 -247 382
-253 0 -12 -54 -112 -77 -142 -13 -18 -30 -33 -37 -33 -12 0 -45 19 -206 120
-47 29 -119 73 -160 96 -129 75 -123 59 -65 174 50 100 69 116 95 85z m-147
-353 c68 -50 330 -220 352 -228 26 -10 12 -45 -79 -188 -46 -72 -145 -234
-220 -361 -154 -257 -162 -269 -261 -410 -39 -55 -83 -120 -97 -145 -14 -25
-53 -83 -87 -130 -33 -47 -62 -89 -64 -94 -2 -6 -19 2 -38 16 -19 14 -88 58
-154 98 -167 100 -185 115 -185 151 0 30 45 128 105 229 18 30 63 107 101 170
74 126 175 293 297 495 44 72 93 154 110 184 16 30 56 95 88 145 33 50 59 94
59 98 0 16 22 7 73 -30z m708 -179 c-15 -29 -40 -59 -41 -50 0 10 39 67 46 67
3 0 0 -8 -5 -17z m-711 -1113 c-6 -11 -13 -20 -16 -20 -2 0 0 9 6 20 6 11 13
20 16 20 2 0 0 -9 -6 -20z m-46 -77 c-32 -56 -49 -77 -38 -48 9 23 55 95 61
95 2 0 -8 -21 -23 -47z m-678 -189 c87 -58 167 -112 176 -121 19 -17 17 -21
-65 -104 l-49 -48 -56 32 c-197 110 -272 167 -272 205 0 35 70 142 94 142 7 0
84 -48 172 -106z m587 36 c-25 -45 -71 -109 -60 -85 8 21 80 135 84 135 2 0
-8 -23 -24 -50z m-79 -125 c-17 -25 -57 -34 -69 -15 -4 6 6 10 23 10 16 0 35
7 42 15 20 24 22 18 4 -10z m-165 -134 c18 -11 8 -50 -25 -103 -31 -49 -41
-45 -15 5 10 21 18 53 17 72 -1 37 1 40 23 26z m-552 -64 c38 -24 91 -56 118
-72 28 -16 80 -48 116 -72 l66 -42 -23 -91 c-16 -60 -29 -157 -39 -283 -22
-278 -18 -263 -73 -283 -193 -70 -526 -248 -632 -338 -13 -12 -5 2 19 29 24
28 50 63 58 79 8 15 47 74 87 130 41 55 80 115 89 132 15 29 21 32 65 32 27 0
63 7 81 16 37 19 88 94 97 142 8 44 -12 136 -39 176 -31 46 -70 62 -152 62
-59 1 -76 -3 -105 -24 -99 -70 -122 -147 -75 -249 l26 -55 -94 -155 c-52 -86
-109 -184 -126 -218 -17 -35 -33 -63 -35 -63 -1 0 1 21 5 48 4 26 8 130 8 232
1 172 -9 280 -45 481 -6 36 -6 36 70 87 82 55 255 184 376 280 41 33 78 61 82
61 4 1 38 -18 75 -42z m-113 -536 c24 -27 17 -70 -16 -94 -24 -18 -30 -18 -58
-7 -37 15 -54 43 -46 76 11 43 89 59 120 25z"/>
<path d="M6557 8223 c-22 -21 15 -92 56 -106 25 -9 57 9 57 32 0 38 -90 97
-113 74z"/>
<path d="M5482 5894 c-1 -17 -4 -47 -7 -65 l-5 -34 11 34 c5 18 8 47 6 65 l-4
31 -1 -31z"/>
<path d="M4920 8763 c-254 -15 -603 -111 -857 -235 -134 -65 -342 -203 -474
-316 -166 -142 -328 -346 -463 -584 -197 -348 -271 -648 -271 -1098 0 -222 19
-375 71 -567 77 -289 269 -639 482 -878 191 -215 421 -394 658 -513 129 -64
321 -138 444 -171 104 -28 345 -65 475 -73 104 -6 449 33 590 68 121 30 354
117 490 184 168 82 265 144 405 259 368 300 618 677 738 1111 66 236 77 328
77 615 0 220 -3 263 -23 360 -66 322 -202 665 -262 665 -19 0 -89 -55 -90 -71
0 -8 20 -56 44 -106 61 -125 92 -214 131 -378 46 -190 55 -271 56 -467 0 -353
-59 -619 -202 -917 -98 -205 -218 -369 -423 -579 -234 -242 -599 -441 -961
-527 -145 -34 -316 -56 -425 -54 -52 1 -112 -2 -132 -6 -41 -8 -173 6 -325 36
-461 88 -893 342 -1200 702 -219 259 -390 628 -449 975 -36 210 -38 524 -5
727 68 418 311 867 623 1147 348 313 713 479 1178 537 112 14 180 13 210 -3
21 -12 29 -12 52 0 15 8 40 14 57 14 50 0 253 -29 387 -55 165 -32 182 -32
194 1 6 15 19 39 30 54 l19 27 -37 16 c-100 44 -320 83 -541 97 -86 5 -169 9
-186 8 -16 -1 -55 -3 -85 -5z"/>
<path d="M3837 7956 c-84 -35 -124 -65 -229 -174 -98 -102 -140 -171 -153
-252 -5 -34 -17 -56 -51 -90 -54 -57 -76 -115 -76 -206 0 -130 51 -243 138
-306 42 -30 44 -33 44 -83 0 -84 24 -147 74 -193 68 -63 72 -64 242 -61 149 3
155 2 170 -19 18 -26 53 -28 94 -7 38 20 43 42 38 169 l-3 104 29 6 c15 3 64
6 108 6 45 0 93 6 112 14 43 18 107 81 129 127 16 35 18 36 89 42 145 13 208
50 267 157 34 62 36 70 36 161 0 91 -2 98 -32 145 -18 27 -40 65 -49 84 -61
134 -82 167 -136 210 -31 25 -73 52 -95 59 -21 8 -56 29 -79 47 -22 19 -63 44
-90 56 -46 22 -64 23 -284 26 -229 2 -236 2 -293 -22z m213 -190 l0 -84 -40
-7 c-103 -17 -67 -131 52 -164 43 -12 49 -11 119 19 88 37 119 68 119 115 l0
34 -62 3 -63 3 3 70 c2 39 9 73 15 77 20 13 116 9 151 -6 18 -8 45 -29 59 -48
19 -24 42 -39 79 -51 111 -35 178 -100 178 -172 0 -33 10 -53 49 -94 49 -53
53 -134 9 -212 -27 -48 -65 -69 -126 -69 -48 0 -51 2 -69 38 -30 58 -120 98
-151 67 -3 -3 0 -27 8 -53 25 -86 24 -143 -2 -181 -13 -19 -35 -43 -50 -54
-27 -20 -32 -20 -365 -8 -303 11 -342 14 -380 32 -75 36 -130 147 -120 238 4
39 13 52 61 96 49 46 56 57 56 91 1 65 16 123 42 159 25 35 195 187 231 207
12 6 60 17 107 23 47 7 86 13 88 14 1 1 2 -37 2 -83z m-70 -971 l0 -65 -133 0
c-126 0 -135 1 -154 23 -16 17 -43 76 -43 93 0 2 73 5 163 7 89 1 163 4 165 5
1 1 2 -27 2 -63z"/>
<path d="M3730 7542 c-19 -9 -41 -30 -49 -46 -28 -59 36 -127 122 -130 32 -1
44 5 69 33 24 27 29 39 24 64 -8 38 -32 66 -73 83 -42 18 -51 18 -93 -4z"/>
<path d="M4312 7458 c-22 -29 -61 -72 -86 -96 l-46 -43 -155 -1 c-86 0 -159 2
-162 6 -3 3 -18 -1 -34 -9 -18 -10 -57 -15 -108 -15 -74 0 -81 -2 -100 -27
-25 -30 -20 -56 15 -92 23 -25 24 -25 111 -13 48 7 160 15 249 18 l160 7 44
-32 c33 -24 51 -30 70 -26 56 14 95 77 86 138 -5 30 -2 44 10 59 16 16 27 18
104 12 84 -6 88 -6 104 17 19 28 21 72 3 87 -20 17 -163 62 -195 62 -24 0 -37
-10 -70 -52z"/>
<path d="M2423 6749 c-23 -4 -55 -15 -71 -23 -42 -22 -108 -100 -116 -137 -35
-175 74 -322 238 -322 148 1 246 95 246 238 0 67 -30 144 -71 182 -53 49 -151
76 -226 62z m87 -134 c87 -45 94 -160 13 -208 -65 -37 -145 12 -157 97 -8 54
3 80 47 106 38 24 59 25 97 5z"/>
<path d="M7555 6740 c-93 -48 -139 -121 -138 -220 0 -75 21 -125 78 -183 79
-81 176 -100 273 -51 183 91 187 354 7 446 -59 31 -168 35 -220 8z m150 -124
c18 -8 39 -25 46 -38 11 -20 10 -22 -3 -10 -21 17 -40 8 -62 -28 -9 -17 -31
-37 -48 -46 -38 -20 -32 -26 13 -15 19 5 46 12 61 15 15 3 34 14 44 23 17 17
17 16 11 -22 -12 -77 -105 -121 -165 -79 -50 34 -70 121 -38 165 33 48 81 60
141 35z"/>
<path d="M6285 6219 c-24 -20 -26 -26 -20 -67 4 -24 9 -51 12 -58 3 -9 -2 -14
-16 -14 -12 0 -36 -7 -53 -16 -30 -16 -31 -16 -72 25 -48 47 -82 53 -113 19
-36 -40 -35 -54 9 -109 l40 -51 -25 -47 -26 -46 -63 -3 c-34 -2 -66 -8 -70
-15 -4 -7 -8 -30 -8 -53 0 -59 25 -79 87 -70 l48 6 28 -52 27 -52 -41 -42
c-36 -37 -40 -46 -34 -73 8 -36 48 -71 81 -71 13 0 38 16 61 40 l38 41 40 -14
40 -14 3 -69 c4 -81 26 -114 77 -114 53 0 69 28 62 107 l-6 68 38 18 c21 9 41
17 46 17 4 0 25 -20 47 -45 22 -25 48 -45 58 -45 20 0 75 58 85 90 5 17 -2 31
-31 61 l-37 38 21 48 20 48 63 5 c55 4 65 8 76 30 16 32 16 72 1 93 -9 12 -32
17 -78 19 -64 3 -65 3 -87 43 -12 22 -23 43 -23 46 0 3 18 27 40 52 22 25 40
51 40 59 0 22 -29 57 -63 74 l-31 17 -46 -51 -45 -50 -47 25 c-41 21 -47 29
-43 49 3 13 7 35 10 48 7 34 -29 76 -64 76 -16 0 -41 -10 -56 -21z m101 -278
c77 -35 124 -125 105 -199 -11 -37 -56 -89 -98 -111 -31 -16 -109 -14 -142 3
-67 35 -113 121 -96 178 17 57 58 110 98 129 53 23 81 23 133 0z"/>
<path d="M6280 5858 c-65 -44 -73 -105 -20 -153 46 -42 135 -23 165 35 22 42
19 66 -12 100 -39 43 -87 49 -133 18z m86 0 c6 -1 11 -6 11 -12 0 -6 3 -27 6
-47 5 -28 2 -40 -13 -54 -10 -9 -16 -23 -14 -30 8 -20 -44 -28 -72 -10 -28 18
-52 57 -32 53 8 -2 12 10 12 35 1 46 37 82 70 72 12 -4 26 -7 32 -7z"/>
<path d="M3923 6081 c-77 -56 -102 -126 -77 -212 16 -51 75 -114 119 -125 107
-27 223 100 201 218 -14 78 -78 138 -153 145 -42 4 -54 1 -90 -26z"/>
<path d="M3955 5575 c-34 -33 -32 -67 6 -99 38 -32 53 -33 84 -1 33 32 32 70
-1 100 -34 32 -58 32 -89 0z"/>
<path d="M5052 4575 c0 -16 2 -22 5 -12 2 9 2 23 0 30 -3 6 -5 -1 -5 -18z"/>
<path d="M8372 4083 c-12 -2 -27 -13 -33 -24 -9 -17 -7 -21 11 -26 21 -6 22
-9 15 -79 l-7 -74 31 0 c33 0 49 16 32 33 -6 6 -11 39 -11 73 0 47 4 63 16 68
25 10 46 7 39 -5 -10 -15 27 -139 41 -139 7 0 15 8 18 18 4 9 15 32 26 51 l19
34 7 -62 c5 -49 10 -61 23 -59 13 3 17 20 19 96 3 92 3 92 -22 92 -16 0 -27
-7 -31 -20 -9 -28 -46 -25 -75 5 -23 25 -56 30 -118 18z"/>
<path d="M2235 3931 c-33 -3 -66 -10 -72 -14 -19 -12 -16 -42 7 -62 19 -17 20
-31 20 -400 0 -368 -1 -383 -20 -408 -17 -22 -19 -29 -8 -52 23 -50 97 -68
191 -46 63 15 80 52 52 109 -13 26 -15 84 -13 405 3 374 3 376 26 399 27 30
27 32 0 58 -23 21 -58 23 -183 11z"/>
<path d="M2742 3929 c-41 -12 -50 -34 -29 -71 15 -26 17 -73 17 -417 0 -334
-2 -390 -16 -409 -38 -54 23 -98 124 -89 101 10 140 45 109 99 -15 26 -17 63
-16 271 l0 242 32 -39 c69 -85 356 -426 407 -485 81 -92 131 -112 183 -71 l25
20 -5 417 c-4 424 -1 464 33 477 23 9 16 35 -16 51 -30 16 -149 21 -209 9 -44
-9 -59 -39 -33 -67 23 -24 24 -43 23 -360 l-1 -169 -42 53 c-24 29 -74 91
-111 138 -37 47 -133 156 -212 242 -162 175 -175 183 -263 158z"/>
<path d="M4894 3931 c-56 -4 -98 -11 -108 -20 -16 -13 -15 -16 8 -40 l25 -26
7 -388 7 -388 -22 -30 c-21 -28 -21 -32 -8 -53 26 -39 67 -50 149 -38 83 13
103 29 93 77 -17 79 -26 335 -20 568 3 142 8 264 11 272 3 7 15 16 27 19 22 6
22 7 -6 31 -15 14 -38 24 -50 23 -12 -1 -63 -4 -113 -7z"/>
<path d="M6430 3933 c-8 -3 -23 -13 -33 -21 -17 -15 -16 -17 8 -42 l25 -26 0
-392 c1 -338 -1 -395 -15 -414 -40 -59 -3 -88 112 -88 72 0 85 3 110 24 27 23
27 26 14 58 -11 24 -14 71 -13 171 l1 139 197 -2 c109 0 201 -3 204 -6 3 -3 7
-64 9 -135 2 -106 0 -134 -13 -154 -25 -38 -20 -63 17 -86 27 -17 43 -20 100
-15 39 3 80 12 94 21 27 18 27 30 5 120 -6 23 -9 186 -9 392 l2 352 30 31 30
32 -28 24 c-26 22 -37 24 -125 24 -72 0 -103 -4 -120 -16 -28 -19 -28 -44 -1
-68 16 -14 20 -25 15 -48 -3 -17 -6 -84 -6 -149 l0 -119 -206 0 -205 0 3 154
c3 144 4 156 26 179 l22 24 -21 19 c-17 16 -38 19 -118 21 -53 1 -103 0 -111
-4z"/>
<path d="M4092 3915 c-96 -27 -159 -73 -202 -149 -26 -44 -30 -61 -30 -127 0
-166 86 -248 313 -301 113 -26 145 -39 176 -72 22 -23 23 -31 15 -64 -26 -107
-247 -89 -381 31 l-39 36 -58 -80 -57 -79 21 -31 c73 -102 347 -171 501 -125
82 24 148 79 188 158 29 57 33 75 33 136 -2 144 -78 222 -269 273 -128 34
-207 61 -225 77 -27 23 -23 78 8 108 24 24 30 26 109 23 75 -4 91 -8 163 -46
l80 -41 56 84 c31 47 54 89 51 94 -10 17 -90 59 -151 81 -79 27 -229 35 -302
14z"/>
<path d="M5688 3920 c-155 -26 -297 -121 -357 -238 -32 -63 -51 -155 -51 -250
0 -150 43 -254 142 -349 95 -89 207 -134 334 -134 96 0 150 12 188 42 l27 22
28 -33 c24 -29 31 -32 62 -26 20 3 48 19 63 35 l28 29 -1 228 c-1 125 -4 231
-6 235 -8 12 -365 23 -377 11 -14 -14 -13 -161 1 -175 8 -8 48 -12 104 -12
l92 0 3 -52 c4 -60 -8 -72 -99 -99 -97 -29 -224 -1 -292 64 -110 104 -116 324
-12 427 52 53 106 78 179 83 92 7 158 -12 224 -66 l56 -45 20 28 c12 16 41 51
66 78 l45 49 -44 39 c-104 93 -268 135 -423 109z"/>
<path d="M7835 3923 c-343 -3 -350 -3 -367 -24 -19 -22 -24 -88 -12 -148 l7
-31 132 0 132 0 2 -318 c1 -301 0 -319 -19 -355 -16 -29 -18 -42 -10 -57 17
-32 44 -40 134 -40 76 0 87 2 115 26 36 30 37 37 11 74 -19 26 -20 50 -27 352
l-6 324 143 -4 c114 -4 144 -2 151 9 11 17 12 160 1 175 -4 6 -14 12 -22 15
-8 2 -172 3 -365 2z"/>
<path d="M4181 2495 c-36 -16 -35 -10 -11 -105 8 -31 11 -132 8 -315 l-3 -269
37 -14 c39 -15 71 -12 101 10 16 12 17 42 20 346 1 243 -1 336 -9 343 -22 18
-107 20 -143 4z"/>
<path d="M4630 2503 c-14 -2 -37 -9 -52 -15 l-28 -10 0 -334 c0 -333 0 -333
22 -348 44 -31 126 -13 129 27 0 7 0 100 -1 207 l-1 195 72 -100 c120 -166
259 -336 284 -347 18 -8 32 -6 62 8 l38 19 -2 344 c-2 264 -6 347 -15 353 -20
12 -102 9 -121 -4 -15 -11 -17 -40 -19 -218 l-3 -205 -23 44 c-13 24 -53 82
-90 129 -199 254 -207 261 -252 255z"/>
<path d="M5375 2494 c-14 -14 -15 -55 -13 -356 3 -323 4 -340 22 -354 29 -21
71 -17 102 10 27 23 28 26 25 117 -2 92 -1 95 26 121 l28 27 80 -102 c137
-174 141 -177 192 -177 41 0 123 33 123 50 0 3 -21 26 -46 50 -46 45 -174 200
-208 253 l-18 27 47 58 c26 31 87 101 137 155 107 116 106 126 -9 134 l-68 5
-45 -53 c-25 -30 -70 -81 -100 -114 -30 -33 -75 -83 -98 -110 l-44 -50 5 153
6 153 -25 10 c-39 14 -101 11 -119 -7z"/>
<path d="M3646 2309 c-14 -17 -29 -42 -32 -56 -16 -62 46 -153 105 -153 35 0
88 54 97 97 9 45 0 74 -37 111 -44 44 -96 45 -133 1z"/>
<path d="M6274 2306 c-29 -29 -34 -41 -34 -81 0 -40 5 -52 35 -82 32 -32 40
-35 73 -30 86 14 124 127 66 196 -21 25 -33 31 -66 31 -32 0 -47 -7 -74 -34z"/>
<path d="M3069 2281 c-71 -71 0 -167 103 -140 24 6 104 15 178 18 159 9 184
18 175 64 -4 18 -11 37 -17 42 -5 6 -71 11 -148 12 -108 1 -145 5 -162 17 -38
27 -95 21 -129 -13z"/>
<path d="M6870 2295 c-19 -11 -61 -14 -168 -14 -95 1 -147 -3 -157 -11 -20
-16 -28 -65 -16 -89 10 -19 23 -20 179 -23 115 -3 177 -8 198 -18 41 -17 88 0
109 41 22 42 19 58 -21 95 -39 38 -81 44 -124 19z"/>
</g>
</svg>
